<?xml version="1.0" encoding="utf-8"?>
<!-- Generator: Adobe Illustrator 15.1.0, SVG Export Plug-In . SVG Version: 6.00 Build 0)  -->
<!DOCTYPE svg PUBLIC "-//W3C//DTD SVG 1.1//EN" "http://www.w3.org/Graphics/SVG/1.1/DTD/svg11.dtd">
<svg version="1.1" id="Layer_1" xmlns="http://www.w3.org/2000/svg" xmlns:xlink="http://www.w3.org/1999/xlink" x="0px" y="0px"
	 width="430.321px" height="429.193px" viewBox="0 0 430.321 429.193" enable-background="new 0 0 430.321 429.193"
	 xml:space="preserve">
<g>
	<polygon points="84.187,0 40.187,0 0.187,0 0.187,40 0.187,84 40.187,84 40.187,40 84.187,40 	"/>
	<polygon points="40.015,300.037 40.015,256.037 0.013,256.037 0.013,300.037 0.013,340.036 40.015,340.036 84.017,340.036 
		84.017,300.037 	"/>
	<rect y="128.018" width="40.002" height="84.002"/>
	<polygon points="256.98,0.956 300.98,0.956 340.98,0.956 340.98,40.956 340.98,84.956 300.98,84.956 300.98,40.956 256.98,40.956 	
		"/>
	<rect x="301.165" y="128.973" width="40.002" height="84.005"/>
	<rect x="128.586" width="84.002" height="40.002"/>
	<rect x="128.586" y="300.989" width="84.006" height="40.002"/>
	<polygon points="401.2,297.406 258.533,260.073 298.533,400.073 335.725,362.88 402.036,429.193 430.321,400.908 364.009,334.596 	
		"/>
</g>
</svg>
