<?xml version="1.0" encoding="utf-8"?>
<!-- Generator: Adobe Illustrator 15.1.0, SVG Export Plug-In . SVG Version: 6.00 Build 0)  -->
<!DOCTYPE svg PUBLIC "-//W3C//DTD SVG 1.1//EN" "http://www.w3.org/Graphics/SVG/1.1/DTD/svg11.dtd">
<svg version="1.1" id="Layer_1" xmlns="http://www.w3.org/2000/svg" xmlns:xlink="http://www.w3.org/1999/xlink" x="0px" y="0px"
	 width="32px" height="31.999px" viewBox="0 0 32 31.999" enable-background="new 0 0 32 31.999" xml:space="preserve">
<g>
	<path fill-rule="evenodd" clip-rule="evenodd" d="M14.63,0.065c4.998-0.444,8.941,1.421,11.83,3.881
		c3.384,2.88,6.32,7.908,5.354,14.646C29.978,31.404,14.047,36.254,5.042,27.73c-3.041-2.879-5.461-7.13-4.981-13.395
		c0.316-4.121,2.326-7.471,4.607-9.765C6.849,2.38,10.224,0.457,14.63,0.065z M2.801,16.088c1.132,0.03,2.189,0.137,2.739,0.751
		c0.149,1.02,0.061,2.275,0.872,2.629c0.876,0.047,0.678-0.987,1.494-1.001c0.733,0.468,2.454,0.605,2.74,1.752
		c0.142,0.569-0.338,1.416-0.125,2.129c0.283,0.944,1.423,1.436,1.743,2.127c0.944,2.043-0.221,2.963-0.747,4.132
		c9.871,2.709,18.565-3.838,17.682-14.021c-0.143-1.645-0.657-3.06-1.37-4.382c-0.402,1.761,0.636,2.435,0.498,3.631
		c-0.223,1.928-3.571,2.457-2.739,5.258c-0.802,0.656-1.964,0.39-2.989,0.876c-0.641,0.305-0.908,0.985-1.494,1.127
		c-0.977,0.234-1.608-0.376-2.49-0.501c-0.7-0.099-1.427,0.525-1.868-0.25c0.209-2.63,4.376-1.938,4.358-4.382
		c-3.396-0.967-5.057-3.678-5.977-7.135c-1.39-0.362-2.831,0.448-3.86-0.251c-1.064-0.722-0.49-2.462-0.747-4.131
		c0.079-0.509,1.209-0.615,0.996-1.001C6.611,5.649,3.007,9.161,2.801,16.088z"/>
	<path fill-rule="evenodd" clip-rule="evenodd" fill="#FFFFFF" d="M11.517,3.445c0.213,0.386-0.917,0.492-0.996,1.001
		c0.257,1.669-0.317,3.409,0.747,4.131c1.029,0.699,2.47-0.111,3.86,0.251c0.92,3.457,2.581,6.168,5.977,7.135
		c0.019,2.443-4.148,1.752-4.358,4.382c0.44,0.775,1.168,0.151,1.868,0.25c0.882,0.125,1.513,0.735,2.49,0.501
		c0.586-0.142,0.853-0.822,1.494-1.127c1.025-0.486,2.187-0.22,2.989-0.876c-0.832-2.801,2.517-3.33,2.739-5.258
		c0.138-1.196-0.9-1.87-0.498-3.631c0.712,1.322,1.227,2.737,1.37,4.382c0.883,10.183-7.811,16.729-17.682,14.021
		c0.526-1.169,1.691-2.089,0.747-4.132c-0.32-0.691-1.46-1.183-1.743-2.127c-0.213-0.713,0.266-1.56,0.125-2.129
		c-0.286-1.146-2.006-1.284-2.74-1.752c-0.816,0.014-0.618,1.048-1.494,1.001c-0.811-0.354-0.722-1.609-0.872-2.629
		c-0.55-0.614-1.607-0.721-2.739-0.751C3.007,9.161,6.611,5.649,11.517,3.445z"/>
</g>
</svg>
