<?xml version="1.0" encoding="utf-8"?>
<!-- Generator: Adobe Illustrator 15.1.0, SVG Export Plug-In . SVG Version: 6.00 Build 0)  -->
<!DOCTYPE svg PUBLIC "-//W3C//DTD SVG 1.1//EN" "http://www.w3.org/Graphics/SVG/1.1/DTD/svg11.dtd">
<svg version="1.1" id="Layer_1" xmlns="http://www.w3.org/2000/svg" xmlns:xlink="http://www.w3.org/1999/xlink" x="0px" y="0px"
	 width="32px" height="32px" viewBox="0 0 32 32" enable-background="new 0 0 32 32" xml:space="preserve">
<path d="M18.079,12.196h-4.384c-0.052,0-0.103,0.004-0.153,0.01c-0.05-0.006-0.101-0.01-0.152-0.01H9.005
	c-0.728,0-1.318,0.587-1.318,1.311s0.59,1.312,1.318,1.312h4.385c0.052,0,0.103-0.004,0.152-0.01c0.05,0.006,0.101,0.01,0.153,0.01
	h4.384c0.729,0,1.319-0.588,1.319-1.312S18.808,12.196,18.079,12.196z"/>
<path d="M31.614,29.763l-1.871-1.859c0-0.001,0-0.001,0-0.001l-1.444-1.436l0,0l-1.872-1.859c0,0,0-0.001,0-0.001l-2.292-2.277
	c2.001-2.363,3.208-5.413,3.208-8.743C27.341,6.082,21.221,0,13.67,0C6.121,0,0,6.082,0,13.586c0,7.503,6.121,13.587,13.67,13.587
	c3.25,0,6.234-1.129,8.58-3.011l1.083,1.076l1.229,1.221l0.216,0.215l1.656,1.646l0.216,0.214l1.229,1.221l1.872,1.861
	c0.515,0.512,1.35,0.512,1.864,0C32.129,31.104,32.129,30.274,31.614,29.763z M13.67,24.562c-6.099,0-11.043-4.914-11.043-10.976
	S7.571,2.61,13.67,2.61s11.043,4.914,11.043,10.976S19.77,24.562,13.67,24.562z"/>
</svg>
